<?xml version="1.0" encoding="UTF-8"?>
<svg version="1.1" xmlns="http://www.w3.org/2000/svg" width="512" height="512">
<path d="M0 0 C1.15653076 0.28206299 1.15653076 0.28206299 2.33642578 0.56982422 C28.70928862 7.18013102 52.11463516 20.8503995 72.77734375 38.28515625 C76.27145211 41.29729706 76.27145211 41.29729706 80 44 C84.00380107 43.08484547 87.57479372 40.58047171 91.12890625 38.5546875 C93.38955521 37.33055378 95.65023764 36.18477269 97.96484375 35.0703125 C98.66955811 34.72887207 99.37427246 34.38743164 100.1003418 34.03564453 C101.50526723 33.35879119 102.91417222 32.69012061 104.32739258 32.03076172 C111.78854444 28.41991019 115.53898463 23.47464851 119.47265625 16.3046875 C121.08918233 13.8654282 122.50628454 12.51104343 125 11 C128.27179463 11 129.60860636 11.65604801 132.0625 13.8125 C142.37698311 30.78148834 143.8107961 57.79721235 139.9375 76.875 C137.56521348 84.50805154 133.04401945 89.16942429 126.0625 92.875 C122.88701253 94.33164563 119.84439274 95.36791272 116.4375 96.125 C114.7359375 96.558125 114.7359375 96.558125 113 97 C110.8138061 103.55858169 112.19353425 109.60281524 113.953125 116.09375 C114.00245237 119.15204665 113.63112912 120.01715338 112.22143555 122.61450195 C109.95393605 126.98745227 108.20344718 131.45584937 106.50390625 136.07421875 C106.18848373 136.91990921 105.87306122 137.76559967 105.54808044 138.63691711 C104.54869764 141.31890856 103.55538751 144.00309806 102.5625 146.6875 C101.57501463 149.34507212 100.58626649 152.00217206 99.59742737 154.65924072 C98.95215988 156.39311563 98.30725176 158.12712432 97.66270447 159.86126709 C95.15830685 166.59379814 92.59838201 173.303154 90 180 C89.43756946 181.45362709 88.87532775 182.90732724 88.31323242 184.36108398 C87.01839863 187.70976404 85.72321539 191.05830856 84.42773438 194.40673828 C78.90421599 208.68529804 73.38906745 222.96688021 67.91796875 237.265625 C67.504366 238.34655426 67.09076324 239.42748352 66.66462708 240.54116821 C64.649983 245.80783083 62.6371595 251.07518328 60.6262207 256.34326172 C59.89665364 258.25228113 59.1670804 260.16129819 58.4375 262.0703125 C58.10288254 262.9484259 57.76826508 263.82653931 57.42350769 264.73126221 C56.96443779 265.93187286 56.96443779 265.93187286 56.49609375 267.15673828 C56.22982178 267.854534 55.9635498 268.55232971 55.68920898 269.27127075 C55 271 55 271 54 273 C54.64701874 272.99555878 55.29403748 272.99111755 55.96066284 272.98654175 C62.67606403 272.94240075 69.39142422 272.91217212 76.10693359 272.89013672 C78.61541415 272.88005989 81.12388292 272.86639821 83.63232422 272.84912109 C87.23147488 272.82494663 90.83047067 272.81353388 94.4296875 272.8046875 C95.55680145 272.79436493 96.68391541 272.78404236 97.84518433 272.77340698 C98.88611237 272.77325592 99.92704041 272.77310486 100.99951172 272.77294922 C102.37851151 272.76628738 102.37851151 272.76628738 103.78536987 272.75949097 C106 273 106 273 108 275 C107.44444444 279.55555556 107.44444444 279.55555556 106 281 C104.53612868 281.15947096 103.06485501 281.25159672 101.59375 281.31640625 C100.63815186 281.35910645 99.68255371 281.40180664 98.69799805 281.44580078 C94.1151381 281.61303546 89.53197696 281.75413059 84.94775391 281.87841797 C82.22091645 281.96239849 79.49969095 282.06268114 76.77490234 282.18798828 C73.13160269 282.35462777 69.48925548 282.47196429 65.84326172 282.5607605 C64.42325212 282.60307534 63.00361248 282.66122134 61.58496094 282.73635864 C50.40783325 283.30934528 44.32298952 280.49882173 36 273 C25.2354659 264.77686574 15.9069224 260.15211569 2 262 C-4.13569818 263.98819436 -8.82224017 267.12594687 -13 272 C-11.98483686 275.83506075 -10.51844146 277.50810731 -7.4375 279.8125 C-4.60074938 282.09372029 -3.46935128 283.557615 -2.9375 287.1875 C-3 291 -3 291 -5 294 C-36.95201039 304.65067013 -83.44892181 292.79475288 -112.35546875 278.4453125 C-142.99041143 262.67074436 -166.87938677 236.02592806 -177.62475586 203.27099609 C-185.44322972 177.9459891 -186.61834433 151.01983239 -184.1875 124.75 C-184.11748779 123.9353125 -184.04747559 123.120625 -183.9753418 122.28125 C-183.5064592 117.88319673 -182.87455281 114.54272974 -180 111 C-177 110.4375 -177 110.4375 -174 111 C-172.06117396 113.00093946 -171.02946792 114.19661136 -170.92578125 117.0234375 C-171.11720703 118.18746094 -171.11720703 118.18746094 -171.3125 119.375 C-176.15078498 160.14706443 -163.8524225 203.89275753 -140 237 C-139.4225 237.82113281 -138.845 238.64226562 -138.25 239.48828125 C-128.37954148 251.98629238 -108.62070351 264.41234827 -93 268 C-93.40202637 267.61368408 -93.80405273 267.22736816 -94.21826172 266.8293457 C-102.94664574 258.39605826 -111.03623934 249.96696441 -118 240 C-118.57105469 239.1853125 -119.14210938 238.370625 -119.73046875 237.53125 C-133.54956807 216.21644384 -135.95899377 189.3768289 -130.76855469 165.00878906 C-124.86611561 139.57903026 -106.74054935 118.75773086 -85 105 C-79.80135202 102.05760368 -74.42732796 99.48901112 -69 97 C-69.59167969 96.33355469 -70.18335938 95.66710937 -70.79296875 94.98046875 C-80.49537578 83.66363184 -85.49033925 72.68639416 -84.875 57.6875 C-84.26340947 50.60744025 -83.15242448 43.43494901 -80 37 C-77.86328125 35.64453125 -77.86328125 35.64453125 -76 35 C-74.515 35.99 -74.515 35.99 -73 37 C-73.46244156 40.69953249 -74.02193676 44.07925809 -75.01953125 47.68359375 C-76.15828389 52.1710688 -76.33206249 56.44966577 -76.3125 61.0625 C-76.32861328 61.82626953 -76.34472656 62.59003906 -76.36132812 63.37695312 C-76.37015812 73.69921674 -70.96445191 80.64786854 -64.19921875 87.94140625 C-60.68080636 91.30421085 -60.68080636 91.30421085 -56 92.0625 C-52.5778325 90.85048234 -49.29890515 89.51749637 -46 88 C-46.6290625 87.59910156 -47.258125 87.19820313 -47.90625 86.78515625 C-57.87222198 80.16618992 -66.3581189 72.04708722 -69 60 C-70.15057515 46.66126332 -69.8801994 31.40555176 -62 20 C-59.54873126 18.81390222 -58.43934713 18.88702502 -55.8125 19.5625 C-54 21 -54 21 -53.265625 23.62109375 C-52.95362778 27.58988194 -53.80731273 30.75258523 -54.9375 34.5 C-57.68544339 44.58747588 -59.02859951 55.1088749 -54.44140625 64.890625 C-51.74192875 68.84107987 -48.16856512 70.81026267 -44 73 C-43.030625 73.54785156 -42.06125 74.09570312 -41.0625 74.66015625 C-32.4951989 79.43559031 -32.4951989 79.43559031 -23 80 C-14.10494934 76.57330228 -3.8697104 71.8091793 1.5 63.625 C4.0290451 57.51314101 3.60359778 53.12007216 1.4375 47.0625 C-4.41970883 33.89887604 -15.21910899 26.60341808 -28.1875 21.1875 C-48.77863338 13.97436358 -69.56297357 10.63206084 -89.81347656 19.94433594 C-97.90277158 23.84988659 -105.56973013 28.26569246 -112.546875 33.96875 C-114 35 -114 35 -116 35 C-116.33 35.99 -116.66 36.98 -117 38 C-118.6505019 39.02646055 -120.32060397 40.02152836 -122 41 C-126.14031905 44.51156 -130.06991366 48.2559029 -134 52 C-134.48871582 52.46535156 -134.97743164 52.93070313 -135.48095703 53.41015625 C-143.16044505 60.7774273 -151.23319921 68.53646992 -156.1875 78.0625 C-158.90045321 82.69437133 -163.29911178 85.25731931 -167.62573242 88.22338867 C-177.46178199 94.99996558 -185.77970702 103.0223871 -188.47460938 115.1328125 C-189.02709867 118.15204977 -189.52564156 121.16457804 -189.88818359 124.21289062 C-190.33590866 127.62035573 -190.81019601 129.75232894 -192.921875 132.5078125 C-195 134 -195 134 -197.625 133.875 C-200 133 -200 133 -202 131 C-202.45716779 127.96237402 -202.3319088 124.88049632 -202.3125 121.8125 C-202.30512817 120.45862183 -202.30512817 120.45862183 -202.29760742 119.07739258 C-201.90284884 96.21580955 -193.45685662 72.99177095 -178 56 C-177.57235352 55.51934082 -177.14470703 55.03868164 -176.70410156 54.54345703 C-164.33143195 40.77809808 -148.22605784 32.22062464 -130 28.8125 C-123.73357125 27.38985131 -119.32017794 24.03237341 -114.203125 20.33251953 C-82.60311095 -2.35754738 -37.53712793 -9.53006146 0 0 Z M-29 8 C-26.63365042 10.36634958 -24.68430639 10.99804711 -21.5625 12.1875 C-4.53462837 19.10507285 5.6837424 29.31797941 13 46 C15.12614178 52.45527383 15.31178095 61.08198979 12.5 67.3125 C2.42167125 83.9469734 -19.04797856 91.67418962 -36.75390625 97.1171875 C-37.91253174 97.48336182 -39.07115723 97.84953613 -40.26489258 98.22680664 C-42.53384228 98.93363812 -44.81370349 99.6066269 -47.10424805 100.23999023 C-54.55830537 102.57077256 -57.84988083 105.3967802 -61.66137695 112.22753906 C-66.00803589 121.2300302 -69.14597819 130.06858062 -66.421875 140.13671875 C-65.32383242 142.82925933 -63.8866425 145.16598777 -62.25 147.5625 C-60.61795042 150.74499668 -61.13175907 152.60596728 -62 156 C-69.14459708 156.66153677 -74.06077439 155.03792042 -80 151 C-88.42234424 143.63223017 -91.0145522 135.83992585 -92 125 C-101.20641633 132.45944846 -101.20641633 132.45944846 -108 142 C-108.67005684 151.58696711 -108.24685867 160.28552875 -103.4375 168.75 C-96.61220892 175.05026869 -88.97717347 178.05437685 -80 180 C-80 180.66 -80 181.32 -80 182 C-88.43586007 185.7312458 -96.86124667 187.38846264 -105.8125 184.4375 C-110.67976813 182.41473922 -114.32784476 179.74200602 -118 176 C-118.556875 175.44441406 -119.11375 174.88882813 -119.6875 174.31640625 C-120.120625 173.88199219 -120.55375 173.44757813 -121 173 C-123.89232575 195.05398387 -120.37712294 218.64546947 -106.64160156 236.79492188 C-100.90889632 243.95606722 -94.65976238 250.69281328 -88 257 C-85.83260143 253.31161998 -85.12272159 249.3826208 -84.25 245.25 C-78.49310284 219.6066454 -65.99799994 198.09368167 -43.7734375 183.3125 C-39.33797947 180.54064054 -34.78653797 177.98900667 -30.1875 175.5 C-29.00522827 174.8493457 -29.00522827 174.8493457 -27.79907227 174.18554688 C-22.14527241 171.21844795 -17.43358295 170 -11 170 C-15.99594628 176.88814392 -20.70410349 181.68135274 -28 186 C-36.74201691 191.37024251 -44.60635022 196.80510424 -52 204 C-52.65742188 204.60714844 -53.31484375 205.21429688 -53.9921875 205.83984375 C-58.035671 209.66640217 -61.72937298 213.85561065 -64 219 C-63.67 219.66 -63.34 220.32 -63 221 C-61.85724609 220.11248047 -61.85724609 220.11248047 -60.69140625 219.20703125 C-43.81620574 206.29255196 -43.81620574 206.29255196 -37 207 C-35 209 -35 209 -34.875 212.125 C-34.91625 213.07375 -34.9575 214.0225 -35 215 C-35.9178125 215.49628906 -36.835625 215.99257813 -37.78125 216.50390625 C-44.84544929 220.39104397 -51.2327997 224.26862082 -57 230 C-54.90680095 231.334757 -54.90680095 231.334757 -52.12109375 230.109375 C-50.90550781 229.66078125 -49.68992187 229.2121875 -48.4375 228.75 C-36.90143375 224.71775966 -25.23198431 222.97333655 -13.0625 222.1875 C-12.28672607 222.13432617 -11.51095215 222.08115234 -10.71166992 222.02636719 C-8.81011652 221.93166279 -6.90339789 221.95583276 -5 222 C-3 224 -3 224 -2.75 227 C-3 230 -3 230 -5 232 C-6.0725 232 -7.145 232 -8.25 232 C-12.59962835 233.15990089 -12.97587165 233.81591207 -15.25 237.5 C-19.18694413 244.90019177 -22.39215304 252.44820278 -21 261 C-20.34 261.66 -19.68 262.32 -19 263 C-18.09378906 262.51789063 -17.18757813 262.03578125 -16.25390625 261.5390625 C-4.05479511 255.15824731 6.27130528 251.8201378 20.13671875 255.9296875 C21.99022752 256.60774011 23.83341711 257.31532249 25.66015625 258.0625 C27.77212875 258.90869933 29.79266967 259.47440363 32 260 C35.98361577 245.09270071 39.03331245 229.97503326 42.1956563 214.87806916 C42.98875863 211.09625728 43.78605182 207.31532953 44.58309937 203.53434753 C46.94425171 192.33011514 49.29984576 181.12471533 51.65252686 169.91870117 C53.4891391 161.17082698 55.32766769 152.42336662 57.17254865 143.67723197 C58.11915327 139.18853543 59.0615984 134.69899234 60.00088906 130.2087599 C60.58483845 127.42184816 61.17255264 124.63574032 61.7613163 121.84984207 C62.16234071 119.94672489 62.55884802 118.04265761 62.95521545 116.13856506 C63.19619461 115.0020752 63.43717377 113.86558533 63.68545532 112.69465637 C63.89227243 111.70976132 64.09908955 110.72486628 64.31217384 109.71012592 C66.10169136 102.65919052 66.10169136 102.65919052 69.71484375 100.0078125 C70.77832031 99.38648438 71.84179688 98.76515625 72.9375 98.125 C78.00457974 95.04098377 78.00457974 95.04098377 81.3125 90.3125 C82.18983247 86.08535263 81.85597916 83.45741058 79.66015625 79.71875 C79.13292969 78.9865625 78.60570312 78.254375 78.0625 77.5 C73.96394167 71.78014464 72.38149466 67.09875442 73 60 C73.350625 59.01 73.70125 58.02 74.0625 57 C74.30468718 54.01441809 74.30468718 54.01441809 72.58984375 52.23828125 C70.16056703 49.9997141 67.63009612 48.00011237 65 46 C64.44119141 45.56993652 63.88238281 45.13987305 63.30664062 44.69677734 C54.87671964 38.23644259 46.20641729 32.31223368 37 27 C36.42314453 26.66371582 35.84628906 26.32743164 35.25195312 25.98095703 C15.41131352 14.51496308 -6.12229396 8.62337074 -29 8 Z M125 21 C123.98422665 22.69900185 122.9880102 24.40970451 122 26.125 C117.62498591 33.03663843 112.9817526 36.21460405 105.59375 39.52734375 C96.99091523 43.39543745 91.77394755 47.61992541 87 56 C86.61199219 56.66515625 86.22398437 57.3303125 85.82421875 58.015625 C84.81541819 60.44439602 84.62982533 62.43681214 84.5625 65.0625 C84.52253906 65.91972656 84.48257812 66.77695313 84.44140625 67.66015625 C84.79422726 70.27048701 84.79422726 70.27048701 87.52734375 71.80859375 C88.34332031 72.20175781 89.15929687 72.59492188 90 73 C90.49628906 71.94941406 90.99257813 70.89882812 91.50390625 69.81640625 C96.46522318 59.49160317 101.44070833 49.79771852 111 43 C113.375 42.1875 113.375 42.1875 115 42 C115 43.32 115 44.64 115 46 C114.401875 46.268125 113.80375 46.53625 113.1875 46.8125 C107.15825036 50.08552123 103.96199974 56.19405512 101.69140625 62.4453125 C100.21890694 67.88607267 100.33645303 72.23054141 102.3125 77.5 C103.81795991 80.27787222 103.81795991 80.27787222 107 81 C111.65335079 79.64629795 113.39486017 78.81775653 116.3125 74.875 C118.34873755 70.79378568 119.22970864 66.46971697 120 62 C121.98 61.505 121.98 61.505 124 61 C124 64.3 124 67.6 124 71 C131.17200713 61.43732383 131.72224916 49.4930105 130.16088867 37.97680664 C128.88848071 29.27110193 128.88848071 29.27110193 126 21 C125.67 21 125.34 21 125 21 Z M86 88 C85.67 89.65 85.34 91.3 85 93 C88.86763446 94.87543354 88.86763446 94.87543354 93 94 C91.824375 93.3503125 91.824375 93.3503125 90.625 92.6875 C88 91 88 91 86 88 Z M76.75 100.5 C75.69039063 101.19609375 75.69039063 101.19609375 74.609375 101.90625 C74.07828125 102.2671875 73.5471875 102.628125 73 103 C77.79277148 105.542876 82.90579227 106.99342431 88.0625 108.625 C89.57166992 109.11226562 89.57166992 109.11226562 91.11132812 109.609375 C92.07619141 109.91617188 93.04105469 110.22296875 94.03515625 110.5390625 C94.9156665 110.81959473 95.79617676 111.10012695 96.70336914 111.38916016 C99.08712157 112.12851799 99.08712157 112.12851799 102 112 C102 109.36 102 106.72 102 104 C89.38826208 97.91861962 89.38826208 97.91861962 76.75 100.5 Z M72 112 C71.67 113.98 71.34 115.96 71 118 C76.61 118 82.22 118 88 118 C84.77621244 115.8508083 82.01585352 114.975006 78.3125 113.875 C76.54326172 113.34519531 76.54326172 113.34519531 74.73828125 112.8046875 C73.83464844 112.53914063 72.93101562 112.27359375 72 112 Z M69 125 C63.27678143 150.95364108 63.27678143 150.95364108 58 177 C60.13774543 176.28837211 62.2751248 175.57572432 64.41162109 174.86035156 C66.06025989 174.31236032 67.71140788 173.77182088 69.36572266 173.24121094 C71.69419159 172.48621805 74.00250476 171.68456868 76.3125 170.875 C77.09689453 170.63007813 77.88128906 170.38515625 78.68945312 170.1328125 C81.81446093 169.00706627 84.23684186 168.04725793 86.22900391 165.31347656 C87.34163695 162.91747394 88.17267758 160.50992166 89 158 C89.68367055 156.13672427 90.36748121 154.27349886 91.05354309 152.41110229 C92.0583163 149.6588714 93.03086871 146.89578483 94.00146484 144.13134766 C94.75862893 141.97543034 95.5214731 139.82158448 96.28515625 137.66796875 C98.78024456 131.93062957 98.78024456 131.93062957 100 126 C89.77 125.67 79.54 125.34 69 125 Z M-66 250 C-69.64643797 254.6974701 -72.05742678 259.10368089 -73 265 C-61.83425051 265.31166922 -51.38050844 265.45743108 -40.51953125 262.55859375 C-38 262 -38 262 -36 263 C-36 264.32 -36 265.64 -36 267 C-38.01864397 267.65264429 -40.04003727 268.29678746 -42.0625 268.9375 C-43.75052734 269.47697266 -43.75052734 269.47697266 -45.47265625 270.02734375 C-52.71825273 272.02529893 -59.61078366 272.09968851 -67.0625 272 C-75.57850106 271.85083994 -75.57850106 271.85083994 -84 273 C-80.63347079 275.2443528 -77.84739127 275.98175772 -73.9375 277 C-72.68839844 277.33 -71.43929687 277.66 -70.15234375 278 C-68.76866211 278.33512597 -67.38452843 278.6683898 -66 279 C-65.29327148 279.18675293 -64.58654297 279.37350586 -63.85839844 279.56591797 C-55.76458826 281.49293435 -47.63408329 281.22220884 -39.375 281.125 C-37.87891227 281.11494608 -36.38281797 281.10582451 -34.88671875 281.09765625 C-31.25767374 281.07584308 -27.62888015 281.04144741 -24 281 C-25.01697698 278.41354077 -26.0483997 275.90290726 -27.2890625 273.4140625 C-31.60711926 264.39917207 -32.74498044 255.49693609 -30.125 245.7421875 C-29.1713289 243.1125797 -28.10130478 240.56971115 -27 238 C-26.63761796 236.67426694 -26.29323798 235.34272126 -26 234 C-39.89239699 234 -55.94279018 240.77826372 -66 250 Z " fill="#BBC4D8" transform="translate(281,112)"/>
<path d="M0 0 C9.765281 5.54406364 17.35303602 5.15447983 28.10546875 3.515625 C32 3 32 3 34 4 C34 5.65 34 7.3 34 9 C28.65574335 11.19496255 23.80117332 12.66764111 18 13 C17.0925 13.05285156 16.185 13.10570312 15.25 13.16015625 C2.91079789 13.52968965 -6.47918961 10.21212324 -17 4 C-23.44302013 0.41101731 -30.8326997 0.88475802 -38.03125 1.0625 C-40 1 -40 1 -41 0 C-41.04063832 -1.66617115 -41.042721 -3.33388095 -41 -5 C-26.73048892 -8.96375308 -12.30891082 -9.40429356 0 0 Z " fill="#A8CBE5" transform="translate(320,395)"/>
<path d="M0 0 C1.11375 0.3403125 1.11375 0.3403125 2.25 0.6875 C2.25 1.6775 2.25 2.6675 2.25 3.6875 C0.87487901 4.63276202 -0.50888159 5.56724404 -1.92724609 6.44628906 C-13.19373443 14.11824549 -22.29584984 25.82955388 -28.75 37.6875 C-29.32105469 38.73164063 -29.89210937 39.77578125 -30.48046875 40.8515625 C-37.08801101 54.00138735 -39.95883539 69.02790665 -39.84765625 83.6875 C-39.8462413 84.4086499 -39.84482635 85.1297998 -39.84336853 85.87280273 C-39.83783381 88.14441324 -39.82529423 90.41592 -39.8125 92.6875 C-39.80747654 94.24088398 -39.80291512 95.79426952 -39.79882812 97.34765625 C-39.78788589 101.12764328 -39.7706676 104.90755414 -39.75 108.6875 C-40.41 108.6875 -41.07 108.6875 -41.75 108.6875 C-47.10776474 80.78247529 -46.46069139 52.93558459 -30.27441406 28.56103516 C-26.53766056 23.16987668 -22.33212325 18.36648114 -17.75 13.6875 C-17.2873877 13.21119141 -16.82477539 12.73488281 -16.34814453 12.24414062 C-3.99129758 -0.45355654 -3.99129758 -0.45355654 0 0 Z " fill="#C3BDD3" transform="translate(185.75,211.3125)"/>
<path d="M0 0 C1.00799652 -0.00953201 2.01599304 -0.01906403 3.05453491 -0.02888489 C4.14722687 -0.02797348 5.23991882 -0.02706207 6.36572266 -0.02612305 C7.48540436 -0.03040817 8.60508606 -0.0346933 9.75869751 -0.03910828 C12.13095421 -0.04485992 14.50322856 -0.04534574 16.87548828 -0.04101562 C20.5079561 -0.03786076 24.13960593 -0.06128771 27.77197266 -0.08666992 C30.07405496 -0.0889433 32.37613946 -0.08964623 34.67822266 -0.08862305 C35.76686615 -0.09783279 36.85550964 -0.10704254 37.97714233 -0.11653137 C38.99144318 -0.11030258 40.00574402 -0.10407379 41.05078125 -0.09765625 C41.94187592 -0.09828568 42.83297058 -0.0989151 43.75106812 -0.0995636 C46.61133113 0.34573539 48.00420559 1.3854098 50.15478516 3.2746582 C49.27978516 8.1496582 49.27978516 8.1496582 48.15478516 9.2746582 C46.47770092 9.37862838 44.79625724 9.4131873 43.1159668 9.41992188 C42.04137711 9.42630173 40.96678741 9.43268158 39.8596344 9.43925476 C38.10501137 9.440924 38.10501137 9.440924 36.31494141 9.44262695 C35.12251328 9.44595535 33.93008514 9.44928375 32.70152283 9.45271301 C30.17365913 9.45778736 27.64578871 9.46012118 25.11791992 9.45996094 C21.23751861 9.46214681 17.35740169 9.48029577 13.47705078 9.49926758 C11.02718197 9.50220143 8.5773118 9.50418628 6.12744141 9.50512695 C4.37585472 9.51590523 4.37585472 9.51590523 2.58888245 9.52690125 C0.97226967 9.5222863 0.97226967 9.5222863 -0.67700195 9.51757812 C-2.10477211 9.51971565 -2.10477211 9.51971565 -3.56138611 9.52189636 C-5.84521484 9.2746582 -5.84521484 9.2746582 -7.84521484 7.2746582 C-7.27626236 1.58513337 -5.60703302 0.02904294 0 0 Z " fill="#AAC9E2" transform="translate(355.84521484375,362.725341796875)"/>
<path d="M0 0 C0.625 2.375 0.625 2.375 1 5 C-1 7 -1 7 -3.4375 7.9375 C-6.76510521 9.31583863 -6.76510521 9.31583863 -9 12 C-9.07075503 15.18397625 -8.77121409 17.17681731 -6.55078125 19.546875 C-5.4458695 20.54618912 -4.34041291 21.54490121 -3.234375 22.54296875 C-2 24 -2 24 -2.125 26.875 C-2.41375 27.57625 -2.7025 28.2775 -3 29 C-13.86873508 29.57995227 -13.86873508 29.57995227 -19 26 C-22.22785938 22.91560103 -24.21972264 20.3880114 -25 16 C-25 10.28864394 -23.30022604 7.54621475 -19.6875 3.25 C-14.01524024 -1.49886864 -6.98087155 -2.32695718 0 0 Z " fill="#C5C2CE" transform="translate(314,190)"/>
<path d="M0 0 C1.9375 0.3125 1.9375 0.3125 4 1 C4.33 1.99 4.66 2.98 5 4 C5.61875 3.79375 6.2375 3.5875 6.875 3.375 C7.926875 3.189375 7.926875 3.189375 9 3 C9.66 3.66 10.32 4.32 11 5 C10.66666667 6.33333333 10.33333333 7.66666667 10 9 C10.66 9.66 11.32 10.32 12 11 C11.625 13.625 11.625 13.625 11 16 C10.34 16 9.68 16 9 16 C9.33 17.65 9.66 19.3 10 21 C9.21625 21.103125 8.4325 21.20625 7.625 21.3125 C4.66954819 21.77595022 4.66954819 21.77595022 3 25 C0.5625 24.625 0.5625 24.625 -2 24 C-2.33 23.34 -2.66 22.68 -3 22 C-5.52733235 21.34444881 -5.52733235 21.34444881 -8 21 C-8 19.68 -8 18.36 -8 17 C-8.99 16.34 -9.98 15.68 -11 15 C-10.625 12.5625 -10.625 12.5625 -10 10 C-9.34 9.67 -8.68 9.34 -8 9 C-8 7.35 -8 5.7 -8 4 C-6.0625 3.4375 -6.0625 3.4375 -4 3 C-3.67 3.33 -3.34 3.66 -3 4 C-2.01 2.68 -1.02 1.36 0 0 Z " fill="#C3BECF" transform="translate(254,228)"/>
<path d="M0 0 C0.061875 0.598125 0.12375 1.19625 0.1875 1.8125 C1.3236757 4.87143458 3.17330142 5.55041099 6 7 C5.74610842 12.82681177 5.38883987 16.74415528 1 21 C-2.69725375 22.84862688 -6.96461442 22.47587094 -11 22 C-13.93423195 20.20353146 -15.47205355 19.0558929 -17 16 C-17.38222745 11.41327064 -17.40773122 8.90040645 -15.5 4.6875 C-11.28277795 0.1539863 -6.10631032 -2.09904417 0 0 Z M-8 8 C-8.88693303 10.04105639 -8.88693303 10.04105639 -9 12 C-6.525 12.99 -6.525 12.99 -4 14 C-2.39585785 12.81476003 -2.39585785 12.81476003 -1 11 C-0.74930087 8.37429296 -0.74930087 8.37429296 -1 6 C-3.75474605 6 -5.55683729 6.74709605 -8 8 Z " fill="#C8C3D1" transform="translate(257,145)"/>
<path d="M0 0 C1.16208984 0.00322266 2.32417969 0.00644531 3.52148438 0.00976562 C4.67970703 -0.00634766 5.83792969 -0.02246094 7.03125 -0.0390625 C8.14048828 -0.03970703 9.24972656 -0.04035156 10.39257812 -0.04101562 C11.92096313 -0.04548706 11.92096313 -0.04548706 13.48022461 -0.05004883 C16.08398438 0.32226562 16.08398438 0.32226562 17.92016602 1.68481445 C19.55900351 3.99060071 19.43794945 5.56133803 19.08398438 8.32226562 C15.44608403 11.96016597 9.62593146 10.69179018 4.70898438 10.69726562 C3.55914062 10.72175781 2.40929687 10.74625 1.22460938 10.77148438 C0.11859375 10.77535156 -0.98742187 10.77921875 -2.12695312 10.78320312 C-3.14063965 10.7914209 -4.15432617 10.79963867 -5.19873047 10.80810547 C-8.61397059 10.19747404 -9.81648628 9.03172114 -11.91601562 6.32226562 C-11.48992307 -0.92130788 -5.69104409 0.03641739 0 0 Z " fill="#BAC1D4" transform="translate(307.916015625,272.677734375)"/>
<path d="M0 0 C1.32 0.33 2.64 0.66 4 1 C4.75 2.6875 4.75 2.6875 5 5 C3.0625 7.75 3.0625 7.75 1 10 C1.4640625 10.8353125 1.4640625 10.8353125 1.9375 11.6875 C3.05761821 14.12540433 3.56037364 16.36224186 4 19 C2.375 19.75 2.375 19.75 0 20 C-3.25 18.0625 -3.25 18.0625 -6 16 C-6.226875 16.639375 -6.45375 17.27875 -6.6875 17.9375 C-8 20 -8 20 -10.625 20.75 C-11.40875 20.8325 -12.1925 20.915 -13 21 C-13.6875 18.6875 -13.6875 18.6875 -14 16 C-12.5625 14.1875 -12.5625 14.1875 -11 13 C-12.15173355 10.53199953 -13.04783565 8.95216435 -15 7 C-14.625 4.875 -14.625 4.875 -14 3 C-10.85375007 2.73781251 -9.38162983 2.75245633 -6.6875 4.5 C-5.8521875 5.2425 -5.8521875 5.2425 -5 6 C-3.35 4.02 -1.7 2.04 0 0 Z " fill="#AEC6DD" transform="translate(385,319)"/>
<path d="M0 0 C2.15502531 3.23253796 2.46856135 4.25150923 2 8 C0.9375 9.8125 0.9375 9.8125 -1 11 C-4.5625 11.3125 -4.5625 11.3125 -8 11 C-10 9 -10 9 -10.3125 5.5625 C-10 2 -10 2 -8.9375 0 C-5.77203476 -1.63378851 -3.34979714 -0.85267564 0 0 Z " fill="#B4C2D9" transform="translate(305,314)"/>
<path d="M0 0 C1.8125 1.0625 1.8125 1.0625 3 3 C3.3125 6.5625 3.3125 6.5625 3 10 C1 12 1 12 -2.4375 12.3125 C-6 12 -6 12 -8 10.9375 C-9.63378851 7.77203476 -8.85267564 5.34979714 -8 2 C-4.76746204 -0.15502531 -3.74849077 -0.46856135 0 0 Z " fill="#BFBED2" transform="translate(243,265)"/>
<path d="M0 0 C1.8125 1.0625 1.8125 1.0625 3 3 C3.3125 6.5625 3.3125 6.5625 3 10 C1 12 1 12 -2.4375 12.3125 C-6 12 -6 12 -8 10.9375 C-9.63378851 7.77203476 -8.85267564 5.34979714 -8 2 C-4.76746204 -0.15502531 -3.74849077 -0.46856135 0 0 Z " fill="#BFC2D1" transform="translate(331,231)"/>
<path d="M0 0 C2.15502531 3.23253796 2.46856135 4.25150923 2 8 C0.9375 9.8125 0.9375 9.8125 -1 11 C-4.5625 11.3125 -4.5625 11.3125 -8 11 C-10 9 -10 9 -10.3125 5.5625 C-10 2 -10 2 -8.9375 0 C-5.77203476 -1.63378851 -3.34979714 -0.85267564 0 0 Z " fill="#C3C6D0" transform="translate(343,180)"/>
<path d="M0 0 C3.5625 0.3125 3.5625 0.3125 5.5625 1.375 C7.19628851 4.54046524 6.41517564 6.96270286 5.5625 10.3125 C2.32996204 12.46752531 1.31099077 12.78106135 -2.4375 12.3125 C-4.25 11.25 -4.25 11.25 -5.4375 9.3125 C-5.75 5.75 -5.75 5.75 -5.4375 2.3125 C-3.4375 0.3125 -3.4375 0.3125 0 0 Z " fill="#BECCD7" transform="translate(350.4375,108.6875)"/>
<path d="M0 0 C1.125 3.75 1.125 3.75 0 6 C-1.66611905 6.042721 -3.33382885 6.04063832 -5 6 C-6 5 -6 5 -6.0625 2.4375 C-6.041875 1.633125 -6.02125 0.82875 -6 0 C-3.50907189 -1.24546405 -2.58919267 -0.7767578 0 0 Z " fill="#B8C1D5" transform="translate(310,290)"/>
<path d="M0 0 C1.2065625 0.0309375 1.2065625 0.0309375 2.4375 0.0625 C3.0625 2.4375 3.0625 2.4375 3.4375 5.0625 C2.7775 5.7225 2.1175 6.3825 1.4375 7.0625 C-1.1875 6.6875 -1.1875 6.6875 -3.5625 6.0625 C-3.605221 4.39638095 -3.60313832 2.72867115 -3.5625 1.0625 C-2.5625 0.0625 -2.5625 0.0625 0 0 Z " fill="#B5C6D8" transform="translate(412.5625,252.9375)"/>
<path d="M0 0 C1.125 3.75 1.125 3.75 0 6 C-1.66611905 6.042721 -3.33382885 6.04063832 -5 6 C-6 5 -6 5 -6.0625 2.4375 C-6.041875 1.633125 -6.02125 0.82875 -6 0 C-3.50907189 -1.24546405 -2.58919267 -0.7767578 0 0 Z " fill="#C2BFD0" transform="translate(287,236)"/>
</svg>
