<?xml version="1.0" encoding="UTF-8"?>
<svg version="1.1" xmlns="http://www.w3.org/2000/svg" width="256" height="256">
<path d="M0 0 C0.80928766 -0.00779995 1.61857533 -0.01559991 2.45238686 -0.02363622 C5.16191875 -0.0435668 7.87004774 -0.02778808 10.57958984 -0.01205444 C12.52293721 -0.01883011 14.46627816 -0.02773295 16.40960693 -0.03860474 C21.68649774 -0.06141066 26.96290009 -0.05255627 32.2397995 -0.03670931 C37.76014022 -0.0240571 43.2804389 -0.03578854 48.80078125 -0.04364014 C58.07152827 -0.05273866 67.34207618 -0.04074338 76.61279297 -0.01693726 C87.3335268 0.0102743 98.05378521 0.00146029 108.77450752 -0.02606928 C117.97635024 -0.04875349 127.17804978 -0.05196377 136.37991142 -0.03887594 C141.87699045 -0.03107768 147.37384595 -0.03005025 152.87091064 -0.04655838 C158.03882368 -0.06099375 163.20612332 -0.05099818 168.37397003 -0.0220871 C170.27145621 -0.01547133 172.16899394 -0.01738231 174.06645966 -0.02840042 C176.65535664 -0.04204838 179.24228355 -0.0249507 181.83105469 0 C182.58348764 -0.01115361 183.3359206 -0.02230722 184.11115456 -0.03379881 C187.81938007 0.03561216 189.80206518 0.55708304 192.8811245 2.66932106 C195.43947147 6.39868397 195.61524063 9.34825422 195.55044556 13.71939087 C195.55824551 14.52867853 195.56604546 15.33796619 195.57408178 16.17177773 C195.59401236 18.88130962 195.57823364 21.58943861 195.5625 24.29898071 C195.56927566 26.24232808 195.5781785 28.18566903 195.58905029 30.1289978 C195.61185622 35.4058886 195.60300182 40.68229096 195.58715487 45.95919037 C195.57450266 51.47953109 195.5862341 56.99982977 195.59408569 62.52017212 C195.60318421 71.79091914 195.59118894 81.06146704 195.56738281 90.33218384 C195.54017125 101.05291767 195.54898527 111.77317608 195.57651484 122.49389839 C195.59919905 131.69574111 195.60240933 140.89744065 195.58932149 150.09930229 C195.58152324 155.59638132 195.58049581 161.09323682 195.59700394 166.59030151 C195.61143931 171.75821455 195.60144374 176.92551419 195.57253265 182.0933609 C195.56591689 183.99084708 195.56782786 185.88838481 195.57884598 187.78585052 C195.59249394 190.37474751 195.57539626 192.96167442 195.55044556 195.55044556 C195.56159917 196.30287851 195.57275277 197.05531147 195.58424437 197.83054543 C195.5148334 201.53877094 194.99336251 203.52145604 192.8811245 206.60051537 C189.15176159 209.15886234 186.20219134 209.3346315 181.83105469 209.26983643 C180.61712319 209.28153636 180.61712319 209.28153636 179.37866783 209.29347265 C176.66913594 209.31340322 173.96100695 209.29762451 171.25146484 209.28189087 C169.30811747 209.28866653 167.36477653 209.29756937 165.42144775 209.30844116 C160.14455695 209.33124709 154.8681546 209.32239269 149.59125519 209.30654573 C144.07091447 209.29389353 138.55061578 209.30562496 133.03027344 209.31347656 C123.75952642 209.32257508 114.48897851 209.31057981 105.21826172 209.28677368 C94.49752789 209.25956212 83.77726948 209.26837614 73.05654716 209.29590571 C63.85470444 209.31858992 54.65300491 209.3218002 45.45114326 209.30871236 C39.95406424 209.30091411 34.45720874 209.29988667 28.96014404 209.31639481 C23.79223101 209.33083018 18.62493137 209.32083461 13.45708466 209.29192352 C11.55959848 209.28530776 9.66206075 209.28721873 7.76459503 209.29823685 C5.17569805 209.31188481 2.58877113 209.29478713 0 209.26983643 C-1.12864944 209.28656684 -1.12864944 209.28656684 -2.28009987 209.30363524 C-5.98832539 209.23422427 -7.97101049 208.71275338 -11.05006981 206.60051537 C-13.60841679 202.87115246 -13.78418594 199.9215822 -13.71939087 195.55044556 C-13.72719082 194.74115789 -13.73499078 193.93187023 -13.74302709 193.0980587 C-13.76295767 190.38852681 -13.74717895 187.68039781 -13.73144531 184.97085571 C-13.73822097 183.02750834 -13.74712382 181.08416739 -13.75799561 179.14083862 C-13.78080153 173.86394782 -13.77194713 168.58754546 -13.75610018 163.31064606 C-13.74344797 157.79030534 -13.75517941 152.27000665 -13.76303101 146.74966431 C-13.77212953 137.47891729 -13.76013425 128.20836938 -13.73632812 118.93765259 C-13.70911657 108.21691875 -13.71793058 97.49666034 -13.74546015 86.77593803 C-13.76814436 77.57409531 -13.77135464 68.37239578 -13.75826681 59.17053413 C-13.75046855 53.67345511 -13.74944112 48.17659961 -13.76594925 42.67953491 C-13.78038462 37.51162188 -13.77038905 32.34432224 -13.74147797 27.17647552 C-13.7348622 25.27898935 -13.73677318 23.38145162 -13.74779129 21.4839859 C-13.76143925 18.89508892 -13.74434157 16.308162 -13.71939087 13.71939087 C-13.73054448 12.96695791 -13.74169809 12.21452496 -13.75318968 11.439291 C-13.68377871 7.73106548 -13.16230783 5.74838038 -11.05006981 2.66932106 C-7.3207069 0.11097408 -4.37113665 -0.06479507 0 0 Z " fill="#C1C9DA" transform="translate(37.08447265625,23.365081787109375)"/>
<path d="M0 0 C0.69609375 0.60199219 1.3921875 1.20398438 2.109375 1.82421875 C3.91563729 3.21321066 3.91563729 3.21321066 6.00390625 2.8046875 C9.45536967 1.4132952 12.70757372 -0.27131125 16 -2 C16.86625 -2.4125 17.7325 -2.825 18.625 -3.25 C21.67870679 -5.50009974 23.4781412 -8.2172118 25.5703125 -11.35546875 C26.27800781 -12.16951172 26.27800781 -12.16951172 27 -13 C27.99 -13 28.98 -13 30 -13 C34.35077147 -5.28726876 35.19129314 2.04480347 35.3125 10.6875 C35.33014404 11.41235596 35.34778809 12.13721191 35.3659668 12.8840332 C35.35901392 18.39260776 34.28992104 22.71007896 30.25 26.75 C27.28728206 28.39595441 24.27649208 29.18087698 21 30 C21.08918701 30.62696777 21.17837402 31.25393555 21.27026367 31.89990234 C22.1057417 43.07260152 17.43776757 52.50565485 13.3125 62.625 C12.53764762 64.5684812 11.76496389 66.51282834 10.99438477 68.45800781 C9.43238339 72.39683496 7.86145275 76.33191368 6.28417969 80.26464844 C3.1988992 87.98125933 0.23739469 95.744326 -2.71279907 103.5133667 C-3.79211597 106.3544088 -4.87629245 109.19358281 -5.96086121 112.03262329 C-6.97488137 114.68804383 -7.98729718 117.34407678 -9 120 C-0.42 120 8.16 120 17 120 C17 121.32 17 122.64 17 124 C13.07201796 124.20046625 9.14608303 124.34414415 5.21411133 124.43945312 C3.23347134 124.49862656 1.25424874 124.6003785 -0.72460938 124.703125 C-9.31792016 124.87716674 -14.09382673 123.59277819 -20.6394043 117.92773438 C-24.72859399 114.58837748 -28.6309315 113.50699312 -33.9296875 113.59765625 C-37.70203441 114.33077272 -40.0891987 116.57433225 -43 119 C-41.84826645 121.46800047 -40.95216435 123.04783565 -39 125 C-38.8125 127.5625 -38.8125 127.5625 -39 130 C-41.83992754 132.83992754 -50.40384586 131.31107163 -54.22119141 131.32128906 C-76.03274896 131.08347335 -94.83397367 124.0399428 -110.96875 109.1328125 C-116.5516313 103.27078714 -120.76421548 96.39391884 -124 89 C-124.41378906 88.10087891 -124.41378906 88.10087891 -124.8359375 87.18359375 C-129.32308013 76.54329019 -129.32214853 64.66988117 -129.25 53.3125 C-129.25773437 52.05244141 -129.26546875 50.79238281 -129.2734375 49.49414062 C-129.27085937 48.29595703 -129.26828125 47.09777344 -129.265625 45.86328125 C-129.26336914 44.78344971 -129.26111328 43.70361816 -129.25878906 42.59106445 C-129 40 -129 40 -127 38 C-126.01 38 -125.02 38 -124 38 C-123.98541748 38.5576001 -123.97083496 39.1152002 -123.95581055 39.68969727 C-123.26089707 63.5942299 -120.14949431 89.28517117 -102.11328125 106.8359375 C-97.50042345 110.71952445 -92.40982983 113.5253217 -87.0625 116.25 C-86.41869385 116.57943604 -85.7748877 116.90887207 -85.11157227 117.24829102 C-76.07524774 121.66979298 -67.92926891 123.4628627 -57.875 123.1875 C-56.91851562 123.17396484 -55.96203125 123.16042969 -54.9765625 123.14648438 C-52.6504189 123.11159222 -50.3255347 123.06258339 -48 123 C-48.42551147 122.1946582 -48.42551147 122.1946582 -48.85961914 121.37304688 C-49.22692139 120.66212891 -49.59422363 119.95121094 -49.97265625 119.21875 C-50.52191772 118.1659082 -50.52191772 118.1659082 -51.08227539 117.09179688 C-53.16590995 112.34250693 -52.21332921 108.22701829 -50.5 103.5625 C-50.005 102.386875 -49.51 101.21125 -49 100 C-51.21190478 100.56964123 -53.41941387 101.15636398 -55.625 101.75 C-57.46964844 102.23726562 -57.46964844 102.23726562 -59.3515625 102.734375 C-64.69828861 104.58912795 -69.00236414 107.10912044 -72 112 C-72.33 112.99 -72.66 113.98 -73 115 C-67.06 115 -61.12 115 -55 115 C-55 115.66 -55 116.32 -55 117 C-62.7927452 120.11457615 -71.74685476 120.23529468 -80 119 C-83.72853439 117.37280725 -85.57950334 115.20869534 -88 112 C-88.75410156 111.17757812 -89.50820312 110.35515625 -90.28515625 109.5078125 C-97.25185139 101.69152039 -102.44868955 92.65866864 -103 82 C-103.061875 80.97261719 -103.12375 79.94523437 -103.1875 78.88671875 C-103.71954605 63.67352694 -98.55862629 52.91800404 -88.375 41.875 C-83.26540491 36.92697313 -77.13858908 33.51845959 -71 30 C-71.63228516 29.07767578 -71.63228516 29.07767578 -72.27734375 28.13671875 C-72.82519531 27.32847656 -73.37304688 26.52023438 -73.9375 25.6875 C-74.48277344 24.88699219 -75.02804688 24.08648437 -75.58984375 23.26171875 C-78.1376358 19.17537084 -78.16269821 15.78972084 -78.1875 11.0625 C-78.20167969 9.83660156 -78.21585938 8.61070313 -78.23046875 7.34765625 C-78.01676797 4.24356188 -77.63998182 2.58637449 -76 0 C-75.34 0 -74.68 0 -74 0 C-74.14179687 1.12277344 -74.28359375 2.24554688 -74.4296875 3.40234375 C-75.6697283 14.57461436 -75.6697283 14.57461436 -70.8359375 24.43359375 C-68.6501531 26.2984864 -66.7454271 27.17078649 -64 28 C-60.77171763 27.69912284 -60.77171763 27.69912284 -58 27 C-58 26.34 -58 25.68 -58 25 C-59.051875 24.7215625 -59.051875 24.7215625 -60.125 24.4375 C-65.16872953 21.91563524 -68.86879505 17.20961211 -71 12 C-71.95627628 4.9210717 -70.37123011 -1.36620147 -68 -8 C-66.68 -8 -65.36 -8 -64 -8 C-63.875 -2.25 -63.875 -2.25 -65 0 C-65.46500861 5.16083324 -65.82632553 10.15060476 -63.6875 14.9375 C-59.14845649 18.420952 -53.34811413 22.24098218 -47.44921875 21.81640625 C-44.70319015 20.90106338 -42.63480954 19.69905554 -40.25 18.0625 C-39.47140625 17.53785156 -38.6928125 17.01320312 -37.890625 16.47265625 C-35.88461347 15.12823573 -35.88461347 15.12823573 -35 13 C-34.62387318 8.48647813 -34.53201386 5.97497112 -36.5 1.875 C-44.79252761 -7.66140675 -54.71617686 -10.69484379 -67 -12 C-73.31880226 -12.43183774 -77.25139132 -11.51630295 -82.8125 -8.5625 C-83.50609619 -8.20341553 -84.19969238 -7.84433105 -84.91430664 -7.47436523 C-91.27284339 -4.06582447 -96.71631424 0.08650878 -102 5 C-102.78890625 5.7321875 -103.5778125 6.464375 -104.390625 7.21875 C-108.29140406 10.9868495 -111.75546878 14.88964619 -115.0625 19.1875 C-118.10428017 23.11570712 -121.21224005 25.8075856 -125.2421875 28.66015625 C-131.36895272 33.33011285 -132.03177885 39.84025937 -133 47 C-134.9375 47.5625 -134.9375 47.5625 -137 48 C-138 47 -138 47 -138.1875 43.125 C-137.94576226 30.33304463 -133.82912139 16.9599047 -124.76171875 7.51171875 C-117.99725057 1.7071751 -110.87812067 -1.58926831 -102.42382812 -4.15454102 C-97.65333682 -5.64623695 -93.98582365 -7.66045099 -89.97265625 -10.5859375 C-61.61533912 -30.91336087 -25.18431805 -18.66732347 0 0 Z " fill="#FBFBFC" transform="translate(180,68)"/>
<path d="M0 0 C19.63257903 -1.04346385 35.6901039 7.89074922 50.65625 19.8359375 C53 22 53 22 54 25 C53.9071875 26.6396875 53.9071875 26.6396875 53.8125 28.3125 C53.6875 32.10416667 53.6875 32.10416667 56.0625 35.0625 C58 38 58 38 58.1875 41.0625 C57 44 57 44 53.59375 46.05859375 C49.57889899 48.82474542 48.78989415 51.53217702 47.81079102 56.19189453 C47.64635498 57.11856934 47.48191895 58.04524414 47.3125 59 C47.11519287 59.97694824 46.91788574 60.95389648 46.71459961 61.96044922 C46.11403107 64.96886395 45.55334308 67.98258225 45 71 C44.67338637 72.71122666 44.3453372 74.42218016 44.015625 76.1328125 C43.53531633 78.63855755 43.05883693 81.14474737 42.59350586 83.65332031 C39.76470337 98.84026796 36.36787761 113.92473833 33 129 C32.38141113 128.76933838 31.76282227 128.53867676 31.12548828 128.30102539 C22.75719354 125.23738167 17.27724224 125.53469255 9.13671875 129.125 C7 130 7 130 5 130 C4.5685178 123.9592492 5.06089087 118.87525543 9 114 C11.140625 113.27734375 11.140625 113.27734375 13 113 C13.495 111.02 13.495 111.02 14 109 C4.41847768 109.95478241 -4.79192145 111.0168212 -14 114 C-11.3821703 111.22818031 -8.95169456 108.96841568 -5.75 106.875 C-2.73996108 105.22935878 -2.73996108 105.22935878 -2 102 C-9.04971909 103.19995219 -12.97464576 107.09999473 -18 112 C-18 106.4576636 -13.86806454 101.97583749 -10.171875 98.06640625 C-5.85987367 94.13126682 -1.20631331 91.17251941 3.8984375 88.359375 C6.2731768 87.02071297 6.2731768 87.02071297 8 84 C1.08653874 84.77268096 -3.39819898 88.10892863 -9 92 C-10.0725 92.7425 -11.145 93.485 -12.25 94.25 C-21.2433722 103.2433722 -25.25008146 114.85452647 -28 127 C-36.77085127 120.14939427 -43.19223557 111.95149676 -46 101 C-46.54129289 95.337147 -46.30235015 89.67074501 -46 84 C-43.77304254 85.05608292 -42.10005235 85.90365329 -40.3125 87.625 C-36.76084148 89.73679696 -33.04418493 89.42656717 -29 89 C-28.67 88.67 -28.34 88.34 -28 88 C-29.36125 87.4121875 -29.36125 87.4121875 -30.75 86.8125 C-34.73155182 84.59201918 -36.96930008 82.06139984 -39 78 C-39.71596013 73.1672691 -40.06839248 68.79277377 -37.5078125 64.49609375 C-35.76460384 62.47440569 -34.09534215 60.65446699 -32 59 C-31.34 59 -30.68 59 -30 59 C-29.91363281 59.59167969 -29.82726562 60.18335938 -29.73828125 60.79296875 C-28.759488 66.2975583 -27.69984976 69.55344351 -23 73 C-20.65732975 73.92345923 -18.47727313 74.46568619 -16 75 C-16.34224609 74.18208984 -16.34224609 74.18208984 -16.69140625 73.34765625 C-19.24377033 66.65199264 -19.67590449 61.4954354 -17.15136719 54.72363281 C-14.9603624 50.21957789 -13.21431095 47.61140512 -8.453125 45.765625 C-6.72889659 45.22680362 -4.99369555 44.72203593 -3.25 44.25 C5.96519048 41.54373171 14.62512476 38.57016435 21 31 C22.60482989 26.18551032 22.42605946 22.32551833 20.875 17.5 C16.96280002 10.1972267 12.6619105 6.13084228 5 3 C4.01 2.5875 3.02 2.175 2 1.75 C1.34 1.5025 0.68 1.255 0 1 C0 0.67 0 0.34 0 0 Z " fill="#BFC5D8" transform="translate(128,53)"/>
<path d="M0 0 C4.56727672 0.60281536 8.66644435 1.41455281 13 3 C13 3.33 13 3.66 13 4 C9.04 4 5.08 4 1 4 C1 4.66 1 5.32 1 6 C5.95 6 10.9 6 16 6 C15.31900354 8.62183637 14.62625855 11.24117575 13.875 13.84375 C12.96708597 16.94895196 12.96708597 16.94895196 12.4375 19.96875 C10.77170108 26.85910007 10.77170108 26.85910007 7.3515625 29.06152344 C3.05890508 31.18414771 -1.41481067 32.64839568 -6 34 C-4.55847904 22.54370188 -2.34190615 11.30026559 0 0 Z " fill="#BEC7D8" transform="translate(179,106)"/>
<path d="M0 0 C-0.33 1.175625 -0.66 2.35125 -1 3.5625 C-2.45696316 9.58039129 -2.60524478 14.03410468 0.0234375 19.72265625 C0.39130371 20.52582275 0.75916992 21.32898926 1.13818359 22.15649414 C1.42258301 22.76485107 1.70698242 23.37320801 2 24 C-1.47900249 24.08825361 -4.95771117 24.14080635 -8.4375 24.1875 C-9.41138672 24.21263672 -10.38527344 24.23777344 -11.38867188 24.26367188 C-17.82823521 24.32828288 -23.04483196 23.47643415 -29 21 C-26.11191233 18.11191233 -23.77599372 18.62301148 -19.75 18.4375 C-15.08408863 18.21158137 -10.59364006 17.86309076 -6 17 C-6 16.34 -6 15.68 -6 15 C-6.67417969 15.16371094 -7.34835938 15.32742187 -8.04296875 15.49609375 C-11.51367906 16.0875358 -14.79322124 16.09539046 -18.3125 16.0625 C-19.56675781 16.05347656 -20.82101563 16.04445312 -22.11328125 16.03515625 C-23.06589844 16.02355469 -24.01851563 16.01195312 -25 16 C-23.10498583 10.63079319 -21.05604447 6.95020704 -16 4 C-10.68404884 1.61133472 -5.89019643 -0.28758644 0 0 Z " fill="#B6C8DF" transform="translate(131,168)"/>
<path d="M0 0 C0.66 0.33 1.32 0.66 2 1 C3.30561288 4.91683864 3.22374165 8.66682648 3.25 12.75 C3.270625 13.53632812 3.29125 14.32265625 3.3125 15.1328125 C3.34830406 20.52132374 2.44319308 24.1907673 0 29 C-1.04449911 25.86650268 -0.93423645 25.01031744 0 22 C-0.99 22 -1.98 22 -3 22 C-3.12375 23.11375 -3.2475 24.2275 -3.375 25.375 C-4 29 -4 29 -6 31 C-8.625 31.125 -8.625 31.125 -11 31 C-12.20643566 27.38069302 -12.32268559 24.80768995 -12 21 C-10 17.625 -10 17.625 -8 15 C-8 14.67 -8 14.34 -8 14 C-11.73936478 18.0903084 -14.74684823 21.86782097 -17 27 C-17.99 26.67 -18.98 26.34 -20 26 C-20.5403486 22.29475246 -20.69389489 20.14375947 -18.72265625 16.89453125 C-15.1912387 12.62640074 -11.91198283 10.24328445 -6.8671875 8.07421875 C-3.53663405 6.15810537 -1.98398995 3.22398367 0 0 Z " fill="#C1CBD7" transform="translate(207,59)"/>
<path d="M0 0 C8.29411151 -0.59337841 13.85191425 0.03354286 21.2109375 3.88671875 C26.03400374 5.81189225 30.89745645 5.40072332 36 5 C35.67 5.99 35.34 6.98 35 8 C29.37632154 9.87455949 22.88147406 10.17205332 17.33984375 7.91796875 C15.70769112 7.02041413 14.08373387 6.10777888 12.46875 5.1796875 C8.46392153 3.26598782 4.38640444 3.10266053 0 3 C0 2.01 0 1.02 0 0 Z " fill="#FAFBFC" transform="translate(144,190)"/>
<path d="M0 0 C8.58 0 17.16 0 26 0 C26 1.32 26 2.64 26 4 C17.42 4 8.84 4 0 4 C0 2.68 0 1.36 0 0 Z " fill="#F4F6F8" transform="translate(180,177)"/>
<path d="M0 0 C0.66 0.33 1.32 0.66 2 1 C1.27554688 1.67804688 0.55109375 2.35609375 -0.1953125 3.0546875 C-12.40470788 14.70891846 -18.26741182 26.03341225 -18.6875 43.125 C-18.72166016 44.08148438 -18.75582031 45.03796875 -18.79101562 46.0234375 C-18.87240474 48.34884073 -18.94189612 50.67391876 -19 53 C-19.33 53 -19.66 53 -20 53 C-22.4549481 39.80465395 -21.56771877 26.72280173 -14.1875 15.1875 C-10.05962394 9.51297671 -5.74422428 4.08868366 0 0 Z " fill="#EEEFF5" transform="translate(94,100)"/>
<path d="M0 0 C-1 3 -1 3 -4 5 C-3.44271087 8.34373475 -2.64826111 11.03312999 -1 14 C-4.53677664 14.32152515 -6.3962104 14.4131192 -9.375 12.375 C-11.48706506 9.28813568 -11.61195145 7.6717087 -11 4 C-8.02080717 -0.52837311 -5.15974216 -0.39690324 0 0 Z " fill="#FBFBFC" transform="translate(160,89)"/>
<path d="M0 0 C1.65 0.33 3.3 0.66 5 1 C6.125 6.625 6.125 6.625 5 10 C3.35 10.33 1.7 10.66 0 11 C0 10.34 0 9.68 0 9 C-0.99 9 -1.98 9 -3 9 C-3 8.34 -3 7.68 -3 7 C-3.66 7 -4.32 7 -5 7 C-4.34 5.35 -3.68 3.7 -3 2 C-2.01 2 -1.02 2 0 2 C0 1.34 0 0.68 0 0 Z " fill="#F3F4F7" transform="translate(130,109)"/>
<path d="M0 0 C5.445 1.485 5.445 1.485 11 3 C11 4.65 11 6.3 11 8 C5.33895411 7.50341703 1.12325529 6.45489316 -4 4 C-2.68 2.68 -1.36 1.36 0 0 Z " fill="#C1CBD8" transform="translate(185,98)"/>
<path d="M0 0 C0 0.99 0 1.98 0 3 C-0.99 3.33 -1.98 3.66 -3 4 C-3 4.66 -3 5.32 -3 6 C-2.01 6 -1.02 6 0 6 C0.33 5.01 0.66 4.02 1 3 C1.66 3 2.32 3 3 3 C3.22417836 5.7648665 3.32233508 7.46277487 1.875 9.875 C0 11 0 11 -3.125 10.75 C-6 10 -6 10 -7 9 C-7.46153846 3.69230769 -7.46153846 3.69230769 -5.75 1.125 C-4 0 -4 0 0 0 Z " fill="#F9F8FA" transform="translate(131,66)"/>
<path d="M0 0 C0.66 0 1.32 0 2 0 C2 0.99 2 1.98 2 3 C3.134375 3.28875 4.26875 3.5775 5.4375 3.875 C6.613125 4.24625 7.78875 4.6175 9 5 C9.33 5.66 9.66 6.32 10 7 C6.88393953 8.00854636 5.09532681 7.94710855 2 6.9375 C-1.23905415 6.0116345 -1.23905415 6.0116345 -4.5 6.875 C-5.2425 7.431875 -5.2425 7.431875 -6 8 C-6.33 7.34 -6.66 6.68 -7 6 C-6.195625 5.731875 -5.39125 5.46375 -4.5625 5.1875 C-3.716875 4.795625 -2.87125 4.40375 -2 4 C-1.67 3.01 -1.34 2.02 -1 1 C-0.67 0.67 -0.34 0.34 0 0 Z " fill="#E2E7ED" transform="translate(187,93)"/>
<path d="M0 0 C3.63 0 7.26 0 11 0 C11.33 1.32 11.66 2.64 12 4 C7.71 4 3.42 4 -1 4 C-0.67 2.68 -0.34 1.36 0 0 Z " fill="#F7F8FA" transform="translate(154,131)"/>
<path d="M0 0 C0.99 0 1.98 0 3 0 C2 2 1 4 0 6 C0.66 6 1.32 6 2 6 C2 6.66 2 7.32 2 8 C0.35 7.67 -1.3 7.34 -3 7 C-3 7.66 -3 8.32 -3 9 C-3.99 9 -4.98 9 -6 9 C-5.814375 8.236875 -5.62875 7.47375 -5.4375 6.6875 C-4.77180827 3.91032625 -4.77180827 3.91032625 -6 1 C-3.525 1.495 -3.525 1.495 -1 2 C-0.67 1.34 -0.34 0.68 0 0 Z " fill="#F3F5F8" transform="translate(196,155)"/>
<path d="M0 0 C4.571279 0.54855348 8.67435795 1.41744803 13 3 C13 3.33 13 3.66 13 4 C9.04 4 5.08 4 1 4 C0.34 5.32 -0.32 6.64 -1 8 C-0.67 5.36 -0.34 2.72 0 0 Z " fill="#E3E7EE" transform="translate(179,106)"/>
<path d="M0 0 C-0.33 0.99 -0.66 1.98 -1 3 C-4.28519475 4.09506492 -6.73663415 4.09960608 -10.1875 4.0625 C-11.81751953 4.04896484 -11.81751953 4.04896484 -13.48046875 4.03515625 C-14.31191406 4.02355469 -15.14335937 4.01195312 -16 4 C-16 3.67 -16 3.34 -16 3 C-14.02 2.67 -12.04 2.34 -10 2 C-10 1.67 -10 1.34 -10 1 C-3.375 0 -3.375 0 0 0 Z " fill="#F3F5F8" transform="translate(180,195)"/>
<path d="M0 0 C1.67542976 0.28604898 3.34385343 0.61781233 5 1 C4.67 2.32 4.34 3.64 4 5 C2.68 5 1.36 5 0 5 C-0.5625 3.0625 -0.5625 3.0625 -1 1 C-0.67 0.67 -0.34 0.34 0 0 Z " fill="#F6F7F9" transform="translate(166,110)"/>
<path d="M0 0 C1.65 0.33 3.3 0.66 5 1 C4.67 2.32 4.34 3.64 4 5 C2.35 4.67 0.7 4.34 -1 4 C-0.67 2.68 -0.34 1.36 0 0 Z " fill="#F6F7FA" transform="translate(152,152)"/>
<path d="M0 0 C1.98 0.495 1.98 0.495 4 1 C3.67 2.65 3.34 4.3 3 6 C1.68 5.67 0.36 5.34 -1 5 C-0.67 3.35 -0.34 1.7 0 0 Z " fill="#F6F6F9" transform="translate(122,127)"/>
<path d="M0 0 C0.66 0 1.32 0 2 0 C1.67 2.97 1.34 5.94 1 9 C0.01 8.67 -0.98 8.34 -2 8 C-1.125 1.125 -1.125 1.125 0 0 Z " fill="#F4F3F6" transform="translate(104,68)"/>
<path d="M0 0 C2.475 0.495 2.475 0.495 5 1 C4.67 2.32 4.34 3.64 4 5 C2.68 5 1.36 5 0 5 C0 3.35 0 1.7 0 0 Z " fill="#FBFBFC" transform="translate(177,48)"/>
<path d="M0 0 C2.475 0.495 2.475 0.495 5 1 C4.67 2.32 4.34 3.64 4 5 C2.68 4.67 1.36 4.34 0 4 C0 2.68 0 1.36 0 0 Z " fill="#FBFBFC" transform="translate(171,84)"/>
<path d="M0 0 C4.455 0.99 4.455 0.99 9 2 C9 2.33 9 2.66 9 3 C6.03 3 3.06 3 0 3 C0 2.01 0 1.02 0 0 Z " fill="#BFC9D7" transform="translate(180,106)"/>
<path d="M0 0 C1.32 0 2.64 0 4 0 C3.67 1.32 3.34 2.64 3 4 C1.68 3.67 0.36 3.34 -1 3 C-0.67 2.01 -0.34 1.02 0 0 Z " fill="#D0CBDA" transform="translate(128,69)"/>
</svg>
